<mxfile host="app.diagrams.net" modified="2021-10-20T18:23:39.880Z" agent="5.0 (Windows NT 10.0; Win64; x64) AppleWebKit/537.36 (KHTML, like Gecko) Chrome/94.0.4606.81 Safari/537.36" etag="Crc0Tw_dydXSAkpip4Mu" version="15.5.6" type="github">
  <diagram id="g2Jq1ryZcvK3IiqdjW95" name="Page-1">
    <mxGraphModel dx="868" dy="496" grid="1" gridSize="10" guides="1" tooltips="1" connect="1" arrows="1" fold="1" page="1" pageScale="1" pageWidth="1169" pageHeight="827" math="0" shadow="0">
      <root>
        <mxCell id="0" />
        <mxCell id="1" parent="0" />
        <mxCell id="FPnhXzIx_AtAITtPuYAK-25" style="edgeStyle=orthogonalEdgeStyle;rounded=0;orthogonalLoop=1;jettySize=auto;html=1;exitX=0.5;exitY=1;exitDx=0;exitDy=0;entryX=0.5;entryY=0;entryDx=0;entryDy=0;endArrow=none;endFill=0;" edge="1" parent="1" source="FPnhXzIx_AtAITtPuYAK-1" target="FPnhXzIx_AtAITtPuYAK-4">
          <mxGeometry relative="1" as="geometry" />
        </mxCell>
        <mxCell id="FPnhXzIx_AtAITtPuYAK-32" value="(1,1)" style="edgeLabel;html=1;align=center;verticalAlign=middle;resizable=0;points=[];" vertex="1" connectable="0" parent="FPnhXzIx_AtAITtPuYAK-25">
          <mxGeometry x="-0.72" y="2" relative="1" as="geometry">
            <mxPoint as="offset" />
          </mxGeometry>
        </mxCell>
        <mxCell id="FPnhXzIx_AtAITtPuYAK-33" value="(1,N)" style="edgeLabel;html=1;align=center;verticalAlign=middle;resizable=0;points=[];" vertex="1" connectable="0" parent="FPnhXzIx_AtAITtPuYAK-25">
          <mxGeometry x="0.72" relative="1" as="geometry">
            <mxPoint x="2" as="offset" />
          </mxGeometry>
        </mxCell>
        <mxCell id="FPnhXzIx_AtAITtPuYAK-1" value="Pedidos" style="whiteSpace=wrap;html=1;align=center;" vertex="1" parent="1">
          <mxGeometry x="585" y="140" width="100" height="40" as="geometry" />
        </mxCell>
        <mxCell id="FPnhXzIx_AtAITtPuYAK-2" value="Endereço" style="ellipse;whiteSpace=wrap;html=1;align=center;" vertex="1" parent="1">
          <mxGeometry x="190" y="140" width="100" height="40" as="geometry" />
        </mxCell>
        <mxCell id="FPnhXzIx_AtAITtPuYAK-40" style="edgeStyle=orthogonalEdgeStyle;rounded=0;orthogonalLoop=1;jettySize=auto;html=1;exitX=0.5;exitY=1;exitDx=0;exitDy=0;entryX=0.5;entryY=0;entryDx=0;entryDy=0;endArrow=none;endFill=0;" edge="1" parent="1" source="FPnhXzIx_AtAITtPuYAK-4" target="FPnhXzIx_AtAITtPuYAK-36">
          <mxGeometry relative="1" as="geometry" />
        </mxCell>
        <mxCell id="FPnhXzIx_AtAITtPuYAK-41" style="edgeStyle=orthogonalEdgeStyle;rounded=0;orthogonalLoop=1;jettySize=auto;html=1;exitX=0.75;exitY=1;exitDx=0;exitDy=0;entryX=0.5;entryY=0;entryDx=0;entryDy=0;endArrow=none;endFill=0;" edge="1" parent="1" source="FPnhXzIx_AtAITtPuYAK-4" target="FPnhXzIx_AtAITtPuYAK-39">
          <mxGeometry relative="1" as="geometry" />
        </mxCell>
        <mxCell id="FPnhXzIx_AtAITtPuYAK-42" style="edgeStyle=orthogonalEdgeStyle;rounded=0;orthogonalLoop=1;jettySize=auto;html=1;exitX=1;exitY=0.5;exitDx=0;exitDy=0;entryX=0;entryY=0.5;entryDx=0;entryDy=0;endArrow=none;endFill=0;" edge="1" parent="1" source="FPnhXzIx_AtAITtPuYAK-4" target="FPnhXzIx_AtAITtPuYAK-37">
          <mxGeometry relative="1" as="geometry" />
        </mxCell>
        <mxCell id="FPnhXzIx_AtAITtPuYAK-4" value="Produtos" style="whiteSpace=wrap;html=1;align=center;" vertex="1" parent="1">
          <mxGeometry x="585" y="280" width="100" height="40" as="geometry" />
        </mxCell>
        <mxCell id="FPnhXzIx_AtAITtPuYAK-7" style="edgeStyle=orthogonalEdgeStyle;rounded=0;orthogonalLoop=1;jettySize=auto;html=1;exitX=0;exitY=0.5;exitDx=0;exitDy=0;entryX=1;entryY=0.5;entryDx=0;entryDy=0;endArrow=none;endFill=0;" edge="1" parent="1" source="FPnhXzIx_AtAITtPuYAK-5" target="FPnhXzIx_AtAITtPuYAK-2">
          <mxGeometry relative="1" as="geometry" />
        </mxCell>
        <mxCell id="FPnhXzIx_AtAITtPuYAK-16" style="edgeStyle=orthogonalEdgeStyle;rounded=0;orthogonalLoop=1;jettySize=auto;html=1;exitX=0.5;exitY=0;exitDx=0;exitDy=0;entryX=0.5;entryY=1;entryDx=0;entryDy=0;endArrow=none;endFill=0;" edge="1" parent="1" source="FPnhXzIx_AtAITtPuYAK-5" target="FPnhXzIx_AtAITtPuYAK-6">
          <mxGeometry relative="1" as="geometry" />
        </mxCell>
        <mxCell id="FPnhXzIx_AtAITtPuYAK-17" style="edgeStyle=orthogonalEdgeStyle;rounded=0;orthogonalLoop=1;jettySize=auto;html=1;exitX=1;exitY=0.5;exitDx=0;exitDy=0;entryX=0;entryY=0.5;entryDx=0;entryDy=0;endArrow=none;endFill=0;" edge="1" parent="1" source="FPnhXzIx_AtAITtPuYAK-5" target="FPnhXzIx_AtAITtPuYAK-1">
          <mxGeometry relative="1" as="geometry" />
        </mxCell>
        <mxCell id="FPnhXzIx_AtAITtPuYAK-21" value="(1,1)" style="edgeLabel;html=1;align=center;verticalAlign=middle;resizable=0;points=[];" vertex="1" connectable="0" parent="FPnhXzIx_AtAITtPuYAK-17">
          <mxGeometry x="-0.7667" y="3" relative="1" as="geometry">
            <mxPoint as="offset" />
          </mxGeometry>
        </mxCell>
        <mxCell id="FPnhXzIx_AtAITtPuYAK-22" value="(1,N)" style="edgeLabel;html=1;align=center;verticalAlign=middle;resizable=0;points=[];" vertex="1" connectable="0" parent="FPnhXzIx_AtAITtPuYAK-17">
          <mxGeometry x="0.7833" y="4" relative="1" as="geometry">
            <mxPoint x="-3" as="offset" />
          </mxGeometry>
        </mxCell>
        <mxCell id="FPnhXzIx_AtAITtPuYAK-24" style="edgeStyle=orthogonalEdgeStyle;rounded=0;orthogonalLoop=1;jettySize=auto;html=1;exitX=0.25;exitY=1;exitDx=0;exitDy=0;entryX=1;entryY=0.5;entryDx=0;entryDy=0;endArrow=none;endFill=0;" edge="1" parent="1" source="FPnhXzIx_AtAITtPuYAK-5" target="FPnhXzIx_AtAITtPuYAK-23">
          <mxGeometry relative="1" as="geometry" />
        </mxCell>
        <mxCell id="FPnhXzIx_AtAITtPuYAK-5" value="Clientes" style="whiteSpace=wrap;html=1;align=center;" vertex="1" parent="1">
          <mxGeometry x="350" y="140" width="100" height="40" as="geometry" />
        </mxCell>
        <mxCell id="FPnhXzIx_AtAITtPuYAK-6" value="&lt;u&gt;Sobrenome&lt;/u&gt;" style="ellipse;whiteSpace=wrap;html=1;align=center;" vertex="1" parent="1">
          <mxGeometry x="350" y="40" width="100" height="40" as="geometry" />
        </mxCell>
        <mxCell id="FPnhXzIx_AtAITtPuYAK-19" style="edgeStyle=orthogonalEdgeStyle;rounded=0;orthogonalLoop=1;jettySize=auto;html=1;exitX=0.5;exitY=1;exitDx=0;exitDy=0;entryX=0.25;entryY=0;entryDx=0;entryDy=0;endArrow=none;endFill=0;" edge="1" parent="1" source="FPnhXzIx_AtAITtPuYAK-18" target="FPnhXzIx_AtAITtPuYAK-5">
          <mxGeometry relative="1" as="geometry" />
        </mxCell>
        <mxCell id="FPnhXzIx_AtAITtPuYAK-18" value="&lt;u&gt;Nome&lt;/u&gt;" style="ellipse;whiteSpace=wrap;html=1;align=center;" vertex="1" parent="1">
          <mxGeometry x="190" y="40" width="100" height="40" as="geometry" />
        </mxCell>
        <mxCell id="FPnhXzIx_AtAITtPuYAK-23" value="CEP" style="ellipse;whiteSpace=wrap;html=1;align=center;" vertex="1" parent="1">
          <mxGeometry x="190" y="230" width="100" height="40" as="geometry" />
        </mxCell>
        <mxCell id="FPnhXzIx_AtAITtPuYAK-27" style="edgeStyle=orthogonalEdgeStyle;rounded=0;orthogonalLoop=1;jettySize=auto;html=1;exitX=0;exitY=0.5;exitDx=0;exitDy=0;entryX=0.75;entryY=0;entryDx=0;entryDy=0;endArrow=none;endFill=0;" edge="1" parent="1" source="FPnhXzIx_AtAITtPuYAK-26" target="FPnhXzIx_AtAITtPuYAK-1">
          <mxGeometry relative="1" as="geometry" />
        </mxCell>
        <mxCell id="FPnhXzIx_AtAITtPuYAK-26" value="Número" style="ellipse;whiteSpace=wrap;html=1;align=center;" vertex="1" parent="1">
          <mxGeometry x="710" y="40" width="100" height="40" as="geometry" />
        </mxCell>
        <mxCell id="FPnhXzIx_AtAITtPuYAK-29" style="edgeStyle=orthogonalEdgeStyle;rounded=0;orthogonalLoop=1;jettySize=auto;html=1;exitX=0;exitY=0.5;exitDx=0;exitDy=0;entryX=1;entryY=0.5;entryDx=0;entryDy=0;endArrow=none;endFill=0;" edge="1" parent="1" source="FPnhXzIx_AtAITtPuYAK-28" target="FPnhXzIx_AtAITtPuYAK-1">
          <mxGeometry relative="1" as="geometry" />
        </mxCell>
        <mxCell id="FPnhXzIx_AtAITtPuYAK-28" value="Pagamento" style="ellipse;whiteSpace=wrap;html=1;align=center;" vertex="1" parent="1">
          <mxGeometry x="710" y="140" width="100" height="40" as="geometry" />
        </mxCell>
        <mxCell id="FPnhXzIx_AtAITtPuYAK-31" style="edgeStyle=orthogonalEdgeStyle;rounded=0;orthogonalLoop=1;jettySize=auto;html=1;exitX=1;exitY=0.5;exitDx=0;exitDy=0;entryX=0.25;entryY=0;entryDx=0;entryDy=0;endArrow=none;endFill=0;" edge="1" parent="1" source="FPnhXzIx_AtAITtPuYAK-30" target="FPnhXzIx_AtAITtPuYAK-1">
          <mxGeometry relative="1" as="geometry" />
        </mxCell>
        <mxCell id="FPnhXzIx_AtAITtPuYAK-30" value="Data" style="ellipse;whiteSpace=wrap;html=1;align=center;" vertex="1" parent="1">
          <mxGeometry x="485" y="40" width="100" height="40" as="geometry" />
        </mxCell>
        <mxCell id="FPnhXzIx_AtAITtPuYAK-36" value="Número" style="ellipse;whiteSpace=wrap;html=1;align=center;" vertex="1" parent="1">
          <mxGeometry x="585" y="360" width="100" height="40" as="geometry" />
        </mxCell>
        <mxCell id="FPnhXzIx_AtAITtPuYAK-37" value="Nome" style="ellipse;whiteSpace=wrap;html=1;align=center;" vertex="1" parent="1">
          <mxGeometry x="710" y="280" width="100" height="40" as="geometry" />
        </mxCell>
        <mxCell id="FPnhXzIx_AtAITtPuYAK-39" value="Preço_Unitário" style="ellipse;whiteSpace=wrap;html=1;align=center;" vertex="1" parent="1">
          <mxGeometry x="710" y="360" width="100" height="40" as="geometry" />
        </mxCell>
      </root>
    </mxGraphModel>
  </diagram>
</mxfile>
